<svg data-v-0dd9719b="" version="1.0" xmlns="http://www.w3.org/2000/svg" xmlns:xlink="http://www.w3.org/1999/xlink" width="100%" height="100%" viewBox="0 0 340.000000 250.000000" preserveAspectRatio="xMidYMid meet" color-interpolation-filters="sRGB" style="margin: auto;"> <rect data-v-0dd9719b="" x="0" y="0" width="100%" height="100%" fill="#fff" fill-opacity="1" class="background"></rect> <rect data-v-0dd9719b="" x="0" y="0" width="100%" height="100%" fill="url(#watermark)" fill-opacity="1" class="watermarklayer"></rect> <g data-v-0dd9719b="" fill="#333" class="icon-text-wrapper icon-svg-group iconsvg" transform="translate(68.69999694824219,96.70612144470215)"><g class="iconsvg-imagesvg" transform="translate(0,0)"><g><rect fill="#333" fill-opacity="0" stroke-width="2" x="0" y="0" width="60" height="56.587758181646706" class="image-rect"></rect> <svg x="0" y="0" width="60" height="56.587758181646706" filtersec="colorsb4058565899" class="image-svg-svg primary" style="overflow: visible;"><svg xmlns="http://www.w3.org/2000/svg" viewBox="0 0 106.02999877929688 100"><path fill="#0961a2" d="M0 100l20.16-5.88 32.86-61.96 32.85 61.96 20.16 5.88L53.02 0 0 100z"></path><path fill="#e6870d" opacity=".8" d="M0 0l20.16 5.88 32.86 61.96L85.87 5.88 106.03 0 53.02 100 0 0z"></path></svg></svg> <!----></g></g> <g transform="translate(67,7.563879013061523)"><g data-gra="path-name" fill-rule="" class="tp-name iconsvg-namesvg"><g transform="scale(1)"><g><path d="M21.12 6.36L21.12 6.36 16.38 6.36 16.38-32.28 21.12-32.28 21.12 6.36ZM34.32-29.94L34.32-29.94 3.18-29.94 3.18-34.62 34.32-34.62 34.32-29.94ZM44.58-18.96L44.58 6.06 39.66 6.06 39.66-18.96 44.58-18.96ZM44.58-28.74L44.58-23.4 39.66-23.4 39.66-28.74 44.58-28.74ZM73.74-20.28L73.74-20.28Q75.84-20.28 77.64-19.5 79.44-18.72 80.73-17.34 82.02-15.96 82.77-14.1 83.52-12.24 83.52-10.02L83.52-10.02 83.52 5.88 78.42 5.88 78.42-10.02Q78.42-12.24 77.1-13.68 75.78-15.12 73.74-15.12L73.74-15.12Q71.76-15.12 70.44-13.68 69.12-12.24 69.12-10.02L69.12-10.02 69.12 5.88 64.02 5.88 64.02-10.02Q64.02-12.24 62.7-13.68 61.38-15.12 59.4-15.12L59.4-15.12Q57.36-15.12 56.07-13.68 54.78-12.24 54.78-10.02L54.78-10.02 54.78 5.88 49.62 5.88 49.62-14.94 48.72-14.94 48.72-20.1 54.78-20.1 54.78-19.14Q56.88-20.28 59.4-20.28L59.4-20.28Q61.56-20.28 63.39-19.44 65.22-18.6 66.6-17.1L66.6-17.1Q67.92-18.6 69.75-19.44 71.58-20.28 73.74-20.28ZM99.9 6.72L99.9 6.72Q97.38 6.72 95.13 5.64 92.88 4.56 91.2 2.7 89.52 0.84 88.53-1.65 87.54-4.14 87.54-6.96L87.54-6.96Q87.54-9.78 88.53-12.27 89.52-14.76 91.2-16.59 92.88-18.42 95.13-19.5 97.38-20.58 99.9-20.58L99.9-20.58Q102.84-20.58 105.42-19.17 108-17.76 109.8-15.12L109.8-15.12 105.9-12.48Q103.56-15.84 99.9-15.84L99.9-15.84Q98.34-15.84 96.93-15.15 95.52-14.46 94.5-13.26 93.48-12.06 92.88-10.44 92.28-8.82 92.28-6.96L92.28-6.96Q92.28-5.1 92.88-3.48 93.48-1.86 94.5-0.63 95.52 0.6 96.93 1.29 98.34 1.98 99.9 1.98L99.9 1.98Q103.56 1.98 105.9-1.38L105.9-1.38 109.8 1.26Q108 3.9 105.42 5.31 102.84 6.72 99.9 6.72ZM125.82-21.06L125.82-21.06Q128.52-21.06 130.86-19.95 133.2-18.84 134.97-16.95 136.74-15.06 137.76-12.54 138.78-10.02 138.78-7.14L138.78-7.14Q138.78-4.26 137.76-1.71 136.74 0.84 134.97 2.73 133.2 4.62 130.86 5.73 128.52 6.84 125.82 6.84L125.82 6.84Q123.12 6.84 120.78 5.73 118.44 4.62 116.67 2.73 114.9 0.84 113.88-1.71 112.86-4.26 112.86-7.14L112.86-7.14Q112.86-10.02 113.88-12.54 114.9-15.06 116.67-16.95 118.44-18.84 120.78-19.95 123.12-21.06 125.82-21.06ZM125.82 1.8L125.82 1.8Q127.44 1.8 128.88 1.11 130.32 0.42 131.4-0.81 132.48-2.04 133.11-3.66 133.74-5.28 133.74-7.14L133.74-7.14Q133.74-8.94 133.11-10.56 132.48-12.18 131.4-13.41 130.32-14.64 128.88-15.33 127.44-16.02 125.82-16.02L125.82-16.02Q124.2-16.02 122.76-15.33 121.32-14.64 120.24-13.41 119.16-12.18 118.53-10.56 117.9-8.94 117.9-7.14L117.9-7.14Q117.9-5.28 118.53-3.66 119.16-2.04 120.24-0.81 121.32 0.42 122.76 1.11 124.2 1.8 125.82 1.8Z" transform="translate(-3.180000066757202, 34.619998931884766)"></path></g> <!----> <!----> <!----> <!----> <!----> <!----> <!----></g></g> <!----></g></g><defs v-gra="od"></defs></svg>